<svg xmlns="http://www.w3.org/2000/svg" viewBox="114 68 534 360">
<defs>
    <linearGradient id="iconGrad" x1="18%" y1="28%" x2="84%" y2="55%">
      <stop offset="0%" stop-color="#404550"/>
      <stop offset="45%" stop-color="#20273b"/>
      <stop offset="100%" stop-color="#272d3b"/>
    </linearGradient>
  </defs>
  <path d="M 113.75,153.33 L 113.58,152.17 L 114.25,150.33 L 114.58,145.67 L 115.08,144.17 L 115.42,141.83 L 115.58,141.67 L 115.58,140.67 L 115.75,140.50 L 116.08,138.00 L 117.25,133.83 L 117.58,131.50 L 118.58,129.33 L 119.25,125.67 L 120.25,123.00 L 120.42,121.83 L 121.25,120.33 L 121.75,118.33 L 123.08,115.33 L 123.42,113.83 L 124.25,112.33 L 124.75,110.67 L 125.25,110.17 L 125.58,109.00 L 126.08,108.17 L 126.42,106.83 L 127.42,105.00 L 127.42,104.67 L 128.25,103.33 L 128.42,102.67 L 129.25,101.67 L 129.58,100.67 L 129.92,100.33 L 130.58,98.83 L 131.08,98.33 L 131.58,97.17 L 132.42,96.17 L 132.42,95.83 L 133.25,94.67 L 133.58,93.67 L 134.08,93.17 L 134.25,92.50 L 135.25,91.50 L 135.58,90.67 L 136.08,90.17 L 137.42,87.83 L 138.08,87.17 L 138.75,85.83 L 139.58,85.00 L 140.25,83.67 L 140.92,83.00 L 141.58,81.83 L 142.25,81.33 L 142.58,80.67 L 143.42,79.83 L 143.92,78.83 L 145.42,76.83 L 146.42,76.00 L 146.42,75.67 L 149.08,73.00 L 149.42,72.33 L 150.08,71.83 L 151.58,70.00 L 161.17,60.42 L 168.83,53.75 L 171.17,52.42 L 173.17,50.58 L 176.83,48.25 L 177.67,47.42 L 178.33,47.25 L 179.50,46.25 L 181.17,45.42 L 182.00,44.58 L 183.00,44.08 L 183.67,43.42 L 186.33,42.25 L 187.33,41.42 L 188.00,41.25 L 188.67,40.58 L 189.83,40.08 L 190.50,39.42 L 190.83,39.42 L 193.17,38.25 L 193.67,37.75 L 195.33,37.08 L 196.33,36.42 L 197.17,36.25 L 198.50,35.42 L 199.33,35.25 L 199.67,34.92 L 200.83,34.58 L 202.67,33.42 L 203.17,33.42 L 203.67,33.08 L 204.17,33.08 L 204.83,32.58 L 207.33,31.92 L 209.67,30.75 L 211.83,30.25 L 212.83,29.58 L 215.00,29.08 L 215.50,28.75 L 217.00,28.42 L 218.33,27.75 L 221.00,27.25 L 221.83,26.58 L 224.33,26.08 L 226.67,25.25 L 227.33,25.25 L 229.50,24.58 L 231.67,24.42 L 234.33,23.42 L 235.33,23.42 L 235.50,23.25 L 238.17,22.92 L 239.67,22.42 L 241.00,22.42 L 242.83,21.92 L 244.17,21.92 L 244.33,21.75 L 249.67,21.42 L 249.83,21.25 L 251.00,21.25 L 251.17,21.08 L 252.17,21.08 L 252.33,20.92 L 254.67,20.92 L 254.83,20.75 L 256.67,20.75 L 256.83,20.58 L 274.33,20.75 L 274.50,20.92 L 278.33,20.92 L 279.50,21.25 L 281.50,21.25 L 281.67,21.42 L 284.00,21.42 L 284.17,21.58 L 285.50,21.58 L 288.00,22.25 L 291.67,22.58 L 293.67,23.25 L 296.83,23.58 L 298.50,24.25 L 301.33,24.58 L 302.67,25.08 L 305.17,25.58 L 305.83,25.92 L 309.00,26.58 L 309.83,27.25 L 311.50,27.58 L 312.83,28.25 L 314.00,28.42 L 315.25,29.50 L 315.42,30.50 L 314.92,31.67 L 314.92,32.17 L 314.58,32.67 L 314.25,34.17 L 313.58,35.17 L 313.25,36.83 L 312.42,38.17 L 311.42,41.50 L 310.75,42.50 L 310.42,44.00 L 309.42,45.67 L 309.08,47.17 L 307.58,50.83 L 307.42,52.00 L 306.75,53.00 L 306.75,53.33 L 306.42,53.83 L 306.42,54.33 L 305.42,56.00 L 305.25,56.83 L 304.42,58.50 L 304.42,59.00 L 303.58,60.50 L 303.42,61.33 L 302.58,62.50 L 302.42,63.50 L 301.58,64.83 L 300.42,68.17 L 299.58,69.50 L 299.25,71.00 L 298.58,71.67 L 297.58,75.00 L 296.58,77.00 L 296.42,78.17 L 295.42,79.67 L 295.08,81.33 L 294.42,82.50 L 294.25,83.33 L 293.58,84.83 L 293.42,86.00 L 292.75,86.83 L 292.75,87.17 L 292.42,87.67 L 292.42,88.33 L 291.25,90.50 L 290.25,94.17 L 289.75,94.83 L 289.75,95.17 L 289.42,95.67 L 289.42,96.17 L 288.92,96.83 L 287.92,99.00 L 287.25,101.17 L 286.58,102.50 L 286.25,104.00 L 285.42,105.50 L 285.42,106.00 L 284.75,106.83 L 284.75,107.17 L 284.42,107.67 L 284.42,108.17 L 283.58,110.17 L 283.42,111.17 L 282.58,112.83 L 282.58,113.33 L 281.58,114.83 L 281.25,116.33 L 280.42,117.67 L 280.25,118.50 L 279.42,120.17 L 278.75,120.83 L 278.42,121.67 L 277.42,122.67 L 277.42,123.00 L 276.25,125.17 L 275.58,125.83 L 275.42,126.33 L 274.42,127.50 L 274.08,128.17 L 272.58,129.83 L 272.42,130.33 L 269.75,133.00 L 268.92,134.17 L 268.00,135.08 L 266.00,136.58 L 264.17,138.58 L 263.83,138.58 L 262.00,140.25 L 261.50,140.42 L 260.67,141.42 L 259.00,142.58 L 258.17,143.42 L 255.67,144.75 L 255.00,145.42 L 254.67,145.42 L 253.17,146.42 L 252.67,146.42 L 251.17,147.25 L 250.83,147.25 L 248.83,148.42 L 247.67,148.75 L 247.17,149.25 L 244.67,149.92 L 242.33,150.92 L 241.83,150.92 L 241.17,151.25 L 239.67,151.58 L 238.33,152.25 L 234.83,152.75 L 234.17,153.08 L 232.33,153.42 L 232.17,153.58 L 231.33,153.58 L 231.17,153.75 L 227.83,153.92 L 227.67,154.08 L 226.50,154.08 L 226.33,154.25 L 225.33,154.25 L 225.17,154.42 L 224.00,154.42 L 223.83,154.58 L 222.33,154.58 L 222.17,154.75 L 216.17,154.75 L 216.00,154.92 L 211.33,154.92 L 211.17,154.75 L 211.00,154.92 L 210.33,154.92 L 210.17,154.75 L 178.33,154.75 L 178.17,154.58 L 177.83,154.75 L 171.17,154.75 L 171.00,154.58 L 120.17,154.58 L 120.00,154.42 L 115.67,154.58 L 114.67,154.25 Z" transform="translate(114 68)" fill="url(#iconGrad)" fill-rule="evenodd"/>
  <path d="M 417.83,174.25 L 417.33,174.42 L 415.83,174.42 L 415.67,174.58 L 389.50,174.58 L 389.33,174.42 L 388.83,174.42 L 388.67,174.58 L 384.33,174.58 L 384.17,174.42 L 378.67,174.42 L 378.50,174.58 L 350.33,174.58 L 350.17,174.42 L 345.67,174.42 L 345.50,174.58 L 303.67,174.58 L 303.50,174.42 L 301.17,174.42 L 299.17,173.58 L 297.17,173.42 L 295.00,172.25 L 293.50,171.92 L 291.50,170.92 L 291.17,170.58 L 290.67,170.58 L 289.00,169.42 L 287.00,167.58 L 285.42,165.67 L 285.08,164.67 L 284.58,164.00 L 284.58,163.67 L 284.25,163.33 L 284.25,163.00 L 283.58,162.00 L 283.25,160.50 L 282.58,159.33 L 282.42,158.17 L 282.25,158.00 L 282.25,156.67 L 282.08,156.50 L 282.08,151.33 L 282.25,151.17 L 282.25,149.67 L 282.42,149.50 L 282.58,147.83 L 283.25,146.50 L 283.58,144.67 L 284.42,142.83 L 284.42,142.33 L 284.92,141.17 L 284.92,140.67 L 285.25,140.17 L 285.58,138.67 L 286.08,138.00 L 286.75,135.67 L 287.08,135.33 L 288.42,131.33 L 289.08,130.00 L 289.42,128.50 L 290.25,127.17 L 290.25,126.67 L 290.58,126.17 L 290.58,125.83 L 291.25,124.83 L 292.58,120.83 L 293.08,120.17 L 293.58,118.50 L 294.25,117.67 L 294.58,116.17 L 295.42,114.83 L 296.42,111.67 L 297.25,110.17 L 297.58,108.67 L 298.42,107.33 L 299.42,103.67 L 300.25,102.00 L 300.42,100.83 L 301.42,99.17 L 301.75,97.67 L 303.08,94.83 L 303.58,92.83 L 304.42,91.17 L 304.42,90.67 L 305.08,89.67 L 305.42,88.67 L 306.25,87.17 L 306.58,85.67 L 306.92,85.33 L 307.42,84.17 L 307.42,83.50 L 307.75,83.17 L 308.25,82.17 L 308.42,81.33 L 309.25,80.00 L 310.58,76.00 L 311.42,74.33 L 311.42,73.83 L 312.25,72.83 L 312.75,71.00 L 313.25,70.17 L 314.42,66.83 L 315.08,66.00 L 315.58,64.17 L 316.42,62.67 L 317.58,58.67 L 318.08,58.00 L 318.42,56.50 L 319.42,54.83 L 319.42,54.50 L 319.75,54.00 L 319.75,53.50 L 320.42,52.17 L 320.42,51.67 L 320.92,50.83 L 321.42,49.17 L 322.42,47.50 L 322.58,46.67 L 323.42,45.17 L 323.42,44.67 L 324.08,43.33 L 324.42,41.83 L 325.25,40.33 L 325.58,39.00 L 326.25,38.17 L 326.58,36.67 L 327.42,35.00 L 328.00,34.42 L 329.00,33.92 L 330.33,34.08 L 333.67,36.08 L 335.33,36.58 L 335.83,37.08 L 337.17,37.58 L 337.67,38.08 L 339.00,38.58 L 340.67,39.58 L 341.00,39.58 L 341.50,40.08 L 342.17,40.25 L 344.67,42.08 L 347.33,43.42 L 347.67,43.92 L 349.00,44.58 L 349.50,45.25 L 353.50,47.42 L 354.50,48.42 L 355.17,48.58 L 355.67,49.08 L 357.00,49.75 L 357.83,50.42 L 358.17,50.42 L 358.67,51.08 L 359.83,51.58 L 360.67,52.42 L 361.17,52.58 L 361.83,53.25 L 362.33,53.42 L 363.50,54.42 L 364.00,54.58 L 364.83,55.58 L 367.00,57.25 L 369.83,60.25 L 370.33,60.42 L 372.00,62.25 L 374.00,63.75 L 381.92,71.83 L 383.42,73.83 L 384.58,74.67 L 385.42,75.67 L 386.25,77.17 L 387.42,78.33 L 387.58,78.83 L 388.42,79.50 L 388.75,80.33 L 390.25,82.00 L 390.58,82.83 L 391.42,83.67 L 391.58,84.17 L 392.92,85.83 L 393.42,86.67 L 393.42,87.00 L 394.25,87.83 L 394.58,88.50 L 395.58,89.67 L 395.58,90.00 L 396.08,90.50 L 397.58,93.33 L 398.42,94.33 L 398.58,94.83 L 399.42,95.67 L 399.92,97.00 L 401.42,99.33 L 401.58,100.00 L 402.25,100.67 L 402.58,101.83 L 403.58,103.50 L 404.42,106.17 L 405.25,107.17 L 405.42,108.00 L 406.58,110.00 L 407.42,112.83 L 408.08,113.67 L 408.08,114.00 L 408.42,114.50 L 408.42,115.00 L 409.25,116.17 L 410.25,118.50 L 410.58,120.00 L 411.42,121.83 L 411.42,122.33 L 412.42,123.83 L 412.58,125.00 L 412.92,125.50 L 412.92,126.00 L 413.25,126.50 L 413.42,127.67 L 413.58,127.83 L 413.75,129.17 L 414.42,130.67 L 414.58,132.17 L 414.92,132.83 L 415.08,134.17 L 415.42,135.00 L 415.58,136.83 L 416.25,138.67 L 416.58,141.17 L 416.75,141.33 L 416.92,143.50 L 417.08,143.67 L 417.08,144.50 L 417.42,145.50 L 417.42,146.50 L 417.58,146.67 L 417.75,148.83 L 417.92,149.00 L 417.92,150.33 L 418.08,150.50 L 418.42,157.00 L 418.92,158.50 L 419.08,160.67 L 419.25,160.83 L 419.25,167.83 L 419.42,168.00 L 419.42,168.50 L 419.25,168.67 L 419.25,172.17 L 418.92,173.17 Z" transform="translate(114 68)" fill="url(#iconGrad)" fill-rule="evenodd"/>
  <path d="M 205.17,307.75 L 204.17,307.92 L 202.50,307.42 L 201.67,306.75 L 200.67,306.42 L 199.17,305.42 L 198.67,305.42 L 197.33,304.58 L 196.33,304.25 L 195.17,303.42 L 194.67,303.42 L 194.17,302.75 L 191.33,301.42 L 191.00,301.42 L 189.33,300.42 L 189.00,300.42 L 188.17,299.58 L 187.00,299.25 L 186.17,298.58 L 183.83,297.42 L 183.50,297.42 L 182.33,296.42 L 181.67,296.25 L 181.00,295.58 L 179.33,294.75 L 177.83,293.58 L 177.33,293.42 L 175.17,291.42 L 174.67,291.25 L 174.00,290.58 L 173.67,290.58 L 172.17,289.42 L 171.33,288.42 L 169.67,287.42 L 168.00,285.58 L 167.50,285.42 L 166.17,284.25 L 165.67,284.08 L 164.00,282.42 L 163.67,282.42 L 163.00,281.42 L 160.67,279.58 L 159.83,278.58 L 157.50,276.58 L 155.08,274.17 L 153.25,272.00 L 152.25,271.17 L 150.58,269.17 L 150.42,268.67 L 147.75,266.00 L 146.25,264.17 L 146.08,263.67 L 144.58,262.17 L 143.75,260.50 L 142.42,259.17 L 142.25,258.67 L 141.58,258.17 L 140.25,255.83 L 137.42,252.17 L 136.25,249.83 L 134.42,247.50 L 133.42,245.50 L 132.75,244.67 L 132.25,243.33 L 131.25,242.17 L 131.25,241.83 L 130.58,241.17 L 130.08,239.83 L 129.58,239.17 L 129.08,237.83 L 128.58,237.33 L 128.08,236.00 L 127.42,235.00 L 127.08,233.83 L 126.58,233.17 L 126.08,231.50 L 125.75,231.17 L 125.75,230.83 L 125.42,230.33 L 125.25,229.50 L 124.92,229.17 L 124.42,228.17 L 124.42,227.67 L 124.08,227.17 L 124.08,226.83 L 123.58,226.17 L 122.92,223.67 L 122.08,222.00 L 122.08,221.67 L 121.75,221.33 L 121.25,219.50 L 120.58,218.50 L 120.25,216.67 L 118.75,212.00 L 118.42,209.83 L 117.58,208.17 L 117.25,205.67 L 116.25,203.17 L 115.75,198.67 L 115.42,197.67 L 115.25,196.00 L 114.75,194.50 L 114.58,192.00 L 114.42,191.83 L 114.25,187.50 L 113.58,185.17 L 113.58,184.17 L 113.42,184.00 L 113.25,177.33 L 113.08,177.17 L 113.08,173.50 L 113.25,173.33 L 113.08,171.17 L 113.58,169.83 L 114.33,169.25 L 115.33,168.92 L 121.83,168.92 L 122.00,168.75 L 220.33,168.75 L 220.50,168.92 L 222.17,169.08 L 222.33,169.25 L 223.17,169.25 L 223.33,169.42 L 224.50,169.42 L 224.67,169.58 L 225.33,169.58 L 226.83,170.08 L 228.00,170.25 L 229.00,170.58 L 229.83,171.25 L 231.17,171.58 L 232.83,172.58 L 235.00,173.42 L 235.67,174.08 L 236.83,174.58 L 237.67,175.42 L 239.33,176.42 L 240.33,177.25 L 242.42,179.67 L 242.58,180.17 L 243.42,180.83 L 243.42,181.17 L 244.92,183.67 L 245.58,185.83 L 246.25,186.67 L 246.92,189.17 L 246.92,190.17 L 247.25,191.17 L 247.25,191.83 L 247.42,192.00 L 247.42,193.33 L 247.58,193.50 L 247.58,194.67 L 247.75,194.83 L 247.75,198.33 L 247.58,198.50 L 247.25,202.83 L 246.58,204.83 L 246.42,206.17 L 245.42,207.67 L 245.42,208.17 L 245.08,208.67 L 245.08,209.33 L 244.42,211.33 L 243.75,212.67 L 243.42,214.17 L 242.42,216.00 L 242.42,216.50 L 241.58,218.50 L 241.25,219.83 L 240.75,220.67 L 240.42,222.17 L 239.42,223.83 L 239.25,225.00 L 237.92,227.67 L 237.25,230.33 L 236.92,230.67 L 236.25,232.83 L 235.58,233.83 L 235.25,235.00 L 234.75,235.83 L 234.75,236.17 L 234.42,236.67 L 234.42,237.17 L 233.58,238.83 L 233.25,240.33 L 232.92,240.67 L 232.42,242.00 L 231.75,243.00 L 231.08,245.33 L 230.75,245.67 L 230.75,246.00 L 230.42,246.50 L 230.25,247.50 L 229.58,248.67 L 229.42,249.50 L 228.58,250.83 L 228.25,252.33 L 227.42,253.67 L 227.42,254.17 L 227.08,254.67 L 227.08,255.17 L 226.75,255.67 L 226.42,257.00 L 225.58,258.33 L 225.08,260.17 L 224.58,260.67 L 223.42,264.50 L 222.58,266.00 L 222.25,267.33 L 221.42,268.50 L 221.08,270.17 L 219.92,272.67 L 219.42,274.50 L 218.58,275.83 L 218.25,277.33 L 217.92,277.67 L 216.92,279.83 L 216.25,281.67 L 216.25,282.17 L 215.75,282.83 L 215.42,284.33 L 214.58,286.00 L 214.42,286.83 L 213.42,288.50 L 213.42,289.00 L 212.58,290.83 L 212.25,292.33 L 211.92,292.67 L 211.42,294.33 L 210.42,295.67 L 210.42,296.17 L 209.92,297.33 L 209.58,297.67 L 209.08,299.33 L 208.75,299.83 L 208.42,301.33 L 207.58,302.50 L 207.25,304.17 L 206.42,305.50 L 205.92,307.00 Z" transform="translate(114 68)" fill="url(#iconGrad)" fill-rule="evenodd"/>
  <path d="M 219.42,312.67 L 219.42,310.83 L 219.58,310.33 L 219.92,310.00 L 220.42,309.00 L 220.42,308.50 L 221.25,307.17 L 221.25,306.67 L 221.92,305.17 L 221.92,304.67 L 222.25,304.17 L 222.25,303.83 L 223.25,302.17 L 223.42,301.00 L 224.58,299.17 L 224.92,297.33 L 225.58,295.50 L 225.92,295.17 L 226.42,293.17 L 227.25,292.00 L 227.25,291.67 L 227.58,291.17 L 227.58,290.67 L 229.08,287.17 L 229.42,285.50 L 230.25,284.17 L 230.58,282.67 L 231.58,281.17 L 231.58,280.67 L 232.25,279.17 L 232.42,278.00 L 233.25,276.17 L 233.25,275.67 L 233.58,275.17 L 233.58,274.83 L 234.25,274.00 L 234.58,272.67 L 235.08,272.00 L 235.08,271.67 L 235.42,271.17 L 235.42,270.67 L 236.25,269.00 L 236.25,268.50 L 237.25,266.83 L 237.58,265.83 L 238.42,264.67 L 238.58,263.67 L 239.42,262.00 L 239.42,261.50 L 240.08,260.33 L 240.42,259.00 L 241.42,257.33 L 241.58,256.33 L 242.42,254.83 L 243.42,251.50 L 244.25,250.17 L 244.58,248.67 L 245.58,247.17 L 246.42,244.50 L 247.42,242.33 L 247.42,241.67 L 248.25,240.33 L 248.58,239.00 L 249.92,236.17 L 250.58,233.50 L 250.92,233.17 L 251.75,230.83 L 252.25,230.17 L 253.58,225.67 L 254.08,224.83 L 254.42,223.67 L 254.92,223.00 L 255.42,221.67 L 255.92,221.00 L 256.42,219.67 L 257.58,217.50 L 258.08,217.00 L 258.58,216.00 L 259.42,215.17 L 259.58,214.67 L 260.08,214.17 L 260.25,213.67 L 260.75,213.17 L 261.42,212.00 L 262.42,211.17 L 264.08,209.17 L 264.42,208.50 L 265.25,207.83 L 268.58,203.83 L 272.50,200.42 L 273.00,200.25 L 273.83,199.42 L 274.33,199.25 L 274.83,198.58 L 276.00,198.08 L 276.83,197.42 L 277.17,197.42 L 277.83,196.92 L 279.17,196.42 L 280.00,195.75 L 282.00,194.92 L 282.67,194.42 L 284.17,194.08 L 287.67,192.58 L 289.83,192.08 L 291.17,191.42 L 295.00,190.75 L 295.67,190.42 L 296.33,190.42 L 298.50,189.75 L 301.33,189.58 L 301.50,189.42 L 302.50,189.42 L 302.67,189.25 L 304.50,189.08 L 304.67,188.92 L 332.50,188.92 L 332.67,188.75 L 347.50,188.75 L 347.67,188.58 L 356.50,188.58 L 356.67,188.75 L 399.83,188.75 L 400.00,188.58 L 401.83,188.58 L 402.00,188.75 L 415.17,188.75 L 417.17,189.42 L 417.75,190.17 L 417.75,192.17 L 417.58,192.33 L 417.58,193.50 L 417.42,193.67 L 417.42,195.33 L 417.25,195.50 L 417.25,196.50 L 416.92,197.50 L 416.92,198.17 L 416.58,199.00 L 416.25,202.33 L 414.75,206.67 L 414.42,209.17 L 414.08,209.67 L 413.42,211.67 L 413.25,213.33 L 412.58,214.83 L 412.42,216.00 L 411.42,217.83 L 411.25,219.00 L 410.58,220.50 L 410.25,222.17 L 409.75,223.00 L 409.75,223.33 L 409.42,223.67 L 409.25,224.33 L 408.58,225.17 L 408.08,227.00 L 407.42,227.83 L 407.42,228.33 L 406.42,231.17 L 405.58,232.50 L 405.08,234.00 L 404.25,235.00 L 403.58,237.00 L 402.58,238.67 L 402.42,239.33 L 401.42,240.67 L 401.25,241.33 L 399.75,243.67 L 399.25,245.17 L 398.58,245.83 L 398.08,247.00 L 397.42,247.67 L 397.25,248.33 L 396.75,248.83 L 395.42,251.33 L 394.42,252.50 L 394.25,253.00 L 393.42,253.83 L 393.42,254.17 L 392.92,254.67 L 392.42,255.67 L 391.58,256.50 L 391.42,257.00 L 390.58,257.67 L 390.08,258.67 L 388.42,260.67 L 388.42,261.00 L 387.42,261.83 L 387.42,262.17 L 385.92,263.67 L 385.25,264.83 L 382.58,267.83 L 382.58,268.17 L 381.42,269.67 L 379.25,271.67 L 378.42,272.83 L 376.25,274.83 L 375.00,276.42 L 374.00,277.25 L 373.50,277.42 L 373.00,278.08 L 372.33,278.42 L 370.17,280.58 L 369.67,280.75 L 367.17,283.58 L 366.33,284.25 L 365.83,284.42 L 364.50,285.58 L 363.17,287.08 L 362.67,287.25 L 361.50,288.25 L 360.83,288.58 L 360.17,289.42 L 359.50,289.58 L 358.50,290.42 L 358.00,290.58 L 357.17,291.42 L 356.83,291.42 L 356.17,292.08 L 355.17,292.58 L 354.33,293.42 L 353.67,293.58 L 352.33,294.58 L 352.00,294.58 L 350.50,295.42 L 349.67,296.25 L 348.50,296.75 L 348.17,297.25 L 346.67,297.92 L 345.33,298.92 L 343.83,299.58 L 343.00,300.42 L 338.00,302.75 L 337.33,303.42 L 336.67,303.58 L 335.83,304.25 L 334.67,304.58 L 333.17,305.42 L 332.67,305.42 L 331.00,306.42 L 330.50,306.42 L 329.17,307.25 L 327.50,307.92 L 327.17,308.25 L 323.50,309.42 L 322.17,310.25 L 320.67,310.58 L 319.33,311.42 L 317.67,311.75 L 313.83,313.08 L 311.83,313.42 L 309.67,314.42 L 308.00,314.58 L 305.50,315.42 L 304.67,315.42 L 303.67,315.75 L 302.67,315.75 L 302.50,315.92 L 301.50,315.92 L 300.50,316.25 L 298.67,316.42 L 297.00,317.08 L 293.00,317.58 L 290.50,318.42 L 285.67,318.75 L 285.50,318.92 L 284.50,318.92 L 283.33,319.25 L 282.50,319.25 L 282.33,319.42 L 275.33,319.58 L 275.17,319.75 L 273.33,319.75 L 273.17,319.92 L 269.50,320.08 L 269.33,320.25 L 258.67,320.25 L 258.50,320.08 L 257.50,320.08 L 256.33,319.75 L 254.67,319.75 L 254.50,319.58 L 253.00,319.58 L 252.83,319.42 L 245.50,319.08 L 243.33,318.42 L 241.00,318.25 L 240.83,318.08 L 240.00,318.08 L 238.33,317.58 L 235.00,317.25 L 231.33,316.08 L 226.50,315.42 L 224.33,314.58 L 223.67,314.58 L 223.50,314.42 L 221.67,314.08 L 220.17,313.42 Z" transform="translate(114 68)" fill="url(#iconGrad)" fill-rule="evenodd"/>
</svg>